<?xml version="1.0" encoding="utf-8"?>
<!-- Generator: Adobe Illustrator 19.0.0, SVG Export Plug-In . SVG Version: 6.00 Build 0)  -->
<svg version="1.1" id="Layer_1" xmlns="http://www.w3.org/2000/svg" xmlns:xlink="http://www.w3.org/1999/xlink" x="0px" y="0px"
	 viewBox="0 0 10 10" style="enable-background:new 0 0 10 10;" xml:space="preserve">
<g id="XMLID_17_">
	<g id="XMLID_107_">
		<defs>
			<path id="XMLID_109_" d="M9.3,2l0.2,0.3c0.3,0.4,0.2,1-0.2,1.3c-0.4,0.3-1,0.2-1.3-0.2l0,0L7.8,3.1L9.3,2z"/>
		</defs>
		<clipPath id="XMLID_2_">
			<use xlink:href="#XMLID_109_"  style="overflow:visible;"/>
		</clipPath>
		<g transform="matrix(1 0 0 1 4.768372e-07 0)" style="clip-path:url(#XMLID_2_);">
			
				<image style="overflow:visible;" width="16" height="18" id="XMLID_113_" xlink:href="D3F5BDCBFE186578.png"  transform="matrix(0.24 0 0 0.24 7.794 2.0195)">
			</image>
		</g>
	</g>
	
		<image style="overflow:visible;" width="38" height="42" id="XMLID_106_" xlink:href="D3F5BDCBFE186579.png"  transform="matrix(0.24 0 0 0.24 0.3874 6.355223e-02)">
	</image>
	<g id="XMLID_82_">
		<defs>
			<path id="XMLID_104_" d="M7.8,6.9l0.1-0.2l0-0.1c0.3-0.4,0.9-0.5,1.3-0.2c0.4,0.3,0.5,0.9,0.2,1.3L9.3,8L7.8,6.9z"/>
		</defs>
		<clipPath id="XMLID_3_">
			<use xlink:href="#XMLID_104_"  style="overflow:visible;"/>
		</clipPath>
		<g transform="matrix(1 0 0 1 4.768372e-07 0)" style="clip-path:url(#XMLID_3_);">
			
				<image style="overflow:visible;" width="16" height="18" id="XMLID_105_" xlink:href="D3F5BDCBFE18657F.png"  transform="matrix(0.24 0 0 0.24 7.7944 3.7105)">
			</image>
		</g>
	</g>
</g>
</svg>
